<svg height="717.411" viewBox="0 0 1311.409 717.411" width="1311.409" xmlns="http://www.w3.org/2000/svg"><path d="m369.148 103.206c-79.832.002-104.915 141.97 11.166 141.97 101.406 0 153.689-114.3 153.689-114.3l-34.202-7.748c-33.069 41.836-66.093 76.494-119.927 76.495-41.703 0-36.092-47.057-11.721-47.058"/><path d="m1204.626 422.118c-72.247 0-108.938-60.093-169.335-60.093-57.571 0-62.21 56.783-3.461 56.783 73.517 0 103.324-102.48 124.3-172.097 33.979-112.773 57.324-143.558 85.552-143.714 16.741-.092 26.502 10.224 26.502 27.948 0 39.571-37.834 60.519-68.213 155.131-40.522 126.202-83.758 187.025-173.319 187.025-122.587 0-117.033-154.018 10.302-154.018 70.324 0 112.378 49.139 165.836 49.139 29.028 0 37.79-20.757 37.79-35.835 0-20.646-16.222-31.049-16.222-49.903 0-19.519 14.747-35.209 39.08-35.209 75.764 0 65.809 174.841-58.813 174.841z"/><path d="m1177.355 103.227c-70.517-.198-111.039 90.042-111.19 143.577-.113 39.999 20.442 63.676 60.13 63.788 62.166.175 107.343-96.639 107.47-141.691.134-47.793-23.415-65.58-56.41-65.673zm-46.365 152.883c-25.503-.072 20.246-103.626 43.775-103.56 21.436.06-21.706 103.622-43.775 103.56z"/><path d="m946.123 676.382c-40.344.07-60.565-22.342-60.612-49.845-.067-38.59 31.533-65.263 31.498-85.266-.011-6.084-3.322-9.224-8.916-9.214-22.269.038-58.481 62.167-58.43 91.473.021 12.38 4.008 14.488 4.025 24.798.028 16.465-14.727 28.121-32.669 28.152-24.458.042-39.018-18.627-39.064-45.071-.038-22.167 8.474-47.626 20.104-73.082 22.773-49.845 39.778-89.023 73.003-89.08 15.843-.027 24.892 9.904 24.916 23.771 0 0 18.501-23.846 51.566-23.903 25.185-.043 39.669 14.048 39.716 40.861.061 35.28-42.158 80.041-42.121 102.044.011 6.559 3.645 10.953 9.676 10.943 30.091-.052 28.443-79.915 69.631-79.986 54.473-.094 10.805 133.244-82.323 133.405z"/><path d="m1025.929 257.188c-6.031 0-9.664-4.383-9.676-10.943-.038-22.003 42.181-66.764 42.121-102.044-.046-26.813-14.531-40.905-39.716-40.861-33.065.057-51.566 23.903-51.566 23.903-.024-13.868-9.072-23.799-24.916-23.771-33.224.057-50.23 39.235-73.003 89.08-11.629 25.455-20.142 50.915-20.104 73.082.046 26.444 14.605 45.113 39.064 45.071 17.942-.031 32.697-11.687 32.669-28.152-.018-10.31-4.004-12.419-4.025-24.798-.051-29.305 36.161-91.434 58.43-91.473 5.594-.01 8.905 3.13 8.916 9.214.035 20.003-31.565 46.676-31.498 85.266.047 27.503 18.134 49.845 58.477 49.845 58.143 0 90.065-64.496 107.732-115.933 17.666-51.437-36.375-16.084-36.375-16.084-20.73 47.267-39.173 78.599-56.53 78.599z"/><path d="m718.731 257.188c-6.031 0-9.664-4.383-9.676-10.943-.038-22.003 42.181-66.763 42.12-102.044-.046-26.813-14.531-40.861-39.716-40.861-39.258 0-61.174 23.602-61.174 23.602s-1.932-23.602-38.32-23.602c-33.064 0-51.566 23.903-51.566 23.903-.024-13.867-9.073-23.799-24.916-23.771-33.225.057-50.23 39.235-73.002 89.08-11.629 25.455-20.142 50.915-20.104 73.082.045 26.444 14.605 45.113 39.064 45.071 17.942-.031 32.697-11.687 32.669-28.152-.018-10.31-4.004-12.419-4.025-24.798-.05-29.306 36.161-91.434 58.43-91.473 5.594-.01 8.916 3.13 8.916 9.214 0 22.203-31.498 51-31.498 92.629 0 21.943 10.545 42.622 35.003 42.58 17.942-.031 32.697-11.687 32.669-28.152-.018-10.31-4.004-12.419-4.026-24.798-.05-29.306 36.161-91.434 58.43-91.473 5.594-.01 8.905 3.13 8.916 9.214.035 20.002-31.565 46.676-31.498 85.266.048 27.503 19.203 49.845 57.594 49.845 55.066 0 86.761-53.509 106.684-129.034l-37.048-7.396c-14.027 37.884-31.867 83.011-53.926 83.011z"/><path d="m810.158 245.486c.155-39.038 57.104-73.379 57.26-112.654.07-17.705-9.395-29.657-28.554-29.733-28.717-.114-54.475 28.2-74.225 95.379-4.82 16.395-8.184 32.49-8.272 54.733-.132 33.321 19.258 57.51 54.576 57.51 46.215 0 72.839-46.016 102.542-121.36 16.757-42.506-37.673-11.32-37.673-11.32-23.182 53.43-38.775 78.507-55.628 78.44-6.159-.024-10.052-4.342-10.026-10.994z"/><path d="m882.858 9.118c-51.84-.205-73.949 79.063-18.289 79.283 56.331.223 71.063-79.074 18.289-79.283z"/><path d="m518.536 468.836c-67.103-.264-110.653 87.324-110.862 140.205-.158 40.023 18.906 67.429 61.321 67.428 71.381-.002 113.86-80.107 114.099-140.652.188-47.822-29.649-66.844-64.558-66.981zm-42.138 153.106c-40.662 0-.393-103.745 41.143-103.746 37.85 0-1.483 103.745-41.143 103.746z"/><path d="m609.519 408.978c-59.635.003-73.366 27.523-106.088 27.526-23.487.002-40.359-15.871-40.27-38.363.134-33.953 30.83-57.624 85.131-57.628 90.687-.008 142.724 40.472 220.006 40.466 59.153-.005 74.322-37.181 113.45-37.182 23.559 0 37.122 14.714 37.122 35.173 0 39.238-42.716 62.478-105.862 62.481-92.505.005-134.393-32.476-203.488-32.472z"/><path d="m518.536 468.836c-79.832.002-104.915 141.973 11.166 141.97 92.255-.002 135.825-78.273 135.825-78.273l-33.446-20.689s-38.036 53.409-102.819 53.41c-41.703 0-36.092-47.057-11.721-47.058"/><path d="m369.149 103.206c-67.103-.264-110.653 87.324-110.862 140.205-.158 40.023 18.906 67.429 61.321 67.428 71.381-.002 113.86-80.107 114.099-140.652.188-47.822-29.649-66.844-64.558-66.981zm-42.138 153.106c-40.662 0-.393-103.745 41.143-103.746 37.85 0-1.483 103.745-41.143 103.746z"/><path d="m708.805 468.831c-64.07.002-110.863 77.715-110.862 140.205 0 40.023 18.906 67.429 61.321 67.428 71.381-.002 113.86-80.107 114.099-140.652.188-47.822-29.649-66.982-64.558-66.981zm-42.138 153.106c-40.662 0-.393-103.745 41.143-103.746 37.85 0-1.483 103.745-41.143 103.746z"/><path d="m708.805 468.831c-79.832.002-104.915 141.97 11.166 141.97 101.406 0 153.689-114.3 153.689-114.3l-34.202-7.748c-33.069 41.836-66.093 76.494-119.927 76.495-41.703 0-36.092-47.057-11.721-47.058"/><path d="m136.186 293.886c-43.816 0-66.637-27.007-66.637-77.482 0-85.725 64.478-167.547 118.938-167.547 19.254 0 26.149 10.342 26.149 22.225 0 34.603-76.383 44.745-76.383 93.076 0 22.833 18.462 37.549 44.374 37.549 44.857 0 93.157-57.626 93.157-121.258-.001-50.954-34.778-80.449-86.336-80.449-108.308 0-189.448 115.716-189.448 228.008 0 74.706 37.451 133.765 127.506 133.765 141.271 0 199.297-186.093 199.297-186.093l-44.075-12.951c-33.947 60.894-82.801 131.156-146.543 131.156z"/><path d="m284.904 648.191c25.837 0 39.403-14.128 39.403-27.591-.001-43.533-151.32-40.107-151.322-138.369-.002-66.599 67.22-133.693 163.807-133.693 70.541 0 105.693 32.76 105.694 88.294.001 49.175-35.634 96.141-75.686 96.141-26.421 0-45.244-15.005-45.244-38.286-.001-43.829 54.723-44.055 54.722-73.673 0-12.116-11.715-22.661-36.855-22.661-56.704 0-97.146 43.23-97.145 81.465.001 61.502 148.826 47.326 148.828 145.841.001 46.883-44.919 91.75-132.426 91.752-161.552.004-159.76-127.097-93.405-127.099 48.077-.001 46.18 57.88 119.63 57.878z"/></svg>